<?xml version="1.0" encoding="utf-8"?>
<!-- Generator: Adobe Illustrator 28.0.0, SVG Export Plug-In . SVG Version: 6.00 Build 0)  -->
<svg version="1.1" id="Layer_1" xmlns="http://www.w3.org/2000/svg" xmlns:xlink="http://www.w3.org/1999/xlink" x="0px" y="0px"
	 viewBox="0 0 500 500" style="enable-background:new 0 0 500 500;" xml:space="preserve">
<style type="text/css">
	.st0{fill:none;stroke:#000000;stroke-width:3;stroke-linejoin:round;stroke-miterlimit:10;}
</style>
<g>
	<path class="st0" d="M359.8,148.6c-14.4-28.4-29.2-63.1-58.7-75.6c-33.3-14.1-72.5-8.8-108.5-5.3c-34.5,3.4-70.4,7.5-101.4,22.9
		c-63,31.1-79.5,137.5-53.4,202.3c10.1,25.1,34,42.5,53.4,61.6C119,382,154,406.7,192.6,414.3c40.8,8.1,83.8-11.5,121-29.9
		c53-26.2,70.8-96.8,87.2-153c4.6-15.7,12.5-31.1,12.5-47.5c0-17.6-26.8-23.8-42.7-31.7"/>
	<path class="st0" d="M149.9,50.1c-8.5-12.7-38.4,6.1-40.9,21.1c-2.6,15.6,14.7,33.1,30.2,36.9c15.4,3.8,29.7-12.1,42.7-21.1
		c16.1-11.2,40.2-35.5,28.5-51c-10.8-14.3-42.7-5.6-53.4,8.8c-13.5,18.2-36.5,37.7-32,59.8c1.5,7.4,10.2,14.1,17.8,14.1
		c13.1,0,21-15.5,30.2-24.6c14.7-14.5,32.3-29.3,37.4-49.3c3.7-14.6-13.6-32.2-28.5-35.2c-31-6.1-75.7,55.3-53.4,77.4
		c9,8.9,24.2,19.7,35.6,14.1C184.6,91,214,60.7,199.7,43C189,29.7,162,31.2,148.1,41.2c-22.4,16.1-51.6,56.3-32,75.6
		c8.3,8.2,20.6,16.3,32,14.1c40.9-8.1,95.5-56.7,80.1-95c-8.4-20.8-42.1-28.8-64-22.9c-30.4,8.3-73.5,36.8-65.9,67
		c4,15.8,14.2,34.8,30.2,38.7c28.9,7.1,58.5-13.7,85.4-26.4c21.2-10,62.1-32.4,48-51c-16.7-22.1-75.8-9.4-81.8,17.6
		c-2.2,9.7-11.9,29.9-1.8,29.9c16.5,0,17.5-27.6,24.9-42.2c3.1-6.1,12-14.5,7.1-19.4c-13.7-13.6-45.4,37.3-30.2,49.3
		c2.7,2.1,5.8,6.8,8.9,5.3c14.3-7.1-14.5-33.8-30.2-36.9c-10.9-2.2-20,20.5-14.2,29.9c5.7,9.4,22.4,21.9,30.2,14.1
		c14.4-14.3,17.2-41.4,8.9-59.8c-3.1-6.9-7.2-20.4-14.2-17.6c-27.4,10.8-50.9,47.2-44.5,75.6c4.5,20,20.1,37.9,37.4,49.3"/>
	<path class="st0" d="M397.2,136.3c-18.2-3-49.9,12-46.2,29.9c4.4,21.6,29.7,37.9,51.6,42.2c13,2.6,27.3-7.4,35.6-17.6
		c8.2-10.1,6.1-28.4-1.8-38.7c-12.4-16.4-43.2-25.4-60.5-14.1c-13.5,8.9-20.4,36.1-8.9,47.5c9,8.9,26,12.6,37.4,7
		c12.6-6.2,22.8-33.3,10.7-40.5c-7.1-4.2-21.6-5.8-24.9,1.8c-6.3,14.5,5,53.5,17.8,44c15.9-11.8,24.7-44.1,10.7-58.1
		c-13-12.9-41.3-12-55.1,0c-14.7,12.7-21.5,38.3-14.2,56.3c8.1,20,44.1,20.8,64,12.3c14.7-6.2,24.9-19.9,35.6-31.7
		c9-10,23.8-22.5,19.6-35.2c-12.7-37.5-82.7-44.3-117.4-24.6c-16.2,9.1-8.9,36.1-8.9,54.5c0,15.3-5.1,32.1,1.8,45.7
		c4.5,8.9,17.2,10.8,26.7,14.1c28.5,10,69.3,22.9,90.7,1.8c18.3-18.1-4.5-58.9-26.7-72.1c-18.1-10.4-50.1,16.5-50.1,37.1
		c0,8.7,14.6,10.2,23.1,12.3c10.4,2.6,25.3,11.8,32,3.5c20.5-25.3,52.5-84.7,21.3-95c-18.1-6-42.2-5.1-56.9,7
		c-10.8,8.9-28.3,20-24.9,33.4c2.7,10.7,6.4,22.1,14.2,29.9c9.7,9.5,38.7,11.6,40.9-1.8c3.5-20.7-4.5-52.3-24.9-58.1
		c-11.5-3.2-29.1,4.4-32,15.8c-3.8,15.2,5.7,30.9,10.7,45.7"/>
	<path class="st0" d="M114.3,257.7c-11.5,17-16.8,37.4-24.9,56.3c-9.9,23.2-29.3,47.7-23.1,72.1c6.1,24.1,37.2,44,62.3,42.2
		c62.4-4.4,108-71.1,138.7-124.9c7.7-13.5,13.4-28,19.6-42.2c4.2-9.7,18.2-37.4,10.7-29.9c-30.6,30.3-62,60.7-85.4,96.7
		c-13.3,20.4-21.8,44.4-39.1,61.6c-20.7,20.5-62.5,39.2-85.4,21.1C47.8,379.2,77.6,308,91.2,259.4c5.1-18.3,11.2-36.7,21.3-52.8
		c5.8-9.1,6.3-23.3,16-28.1c4.8-2.4,0.5,11-1.8,15.8c-3.7,7.9-3.6,7.9-7.1,15.8c-9.8,22-9.4,22.1-19.6,44
		c-16.1,34.8-35.5,69.5-40.9,107.3c-3.3,23.1,11.1,55.2,33.8,61.6c14.4,4.1,29.5-7,42.7-14.1c34.1-18.4,65.7-42.8,90.7-72.1
		c7.3-8.6,14.5-17.4,21.3-26.4c4.6-6.1,12.5-27,12.5-19.4c0,11.7-7.1,22.3-10.7,33.4c-6.6,20.9-9.3,44.5-23.1,61.6
		c-23.9,29.5-65.2,40.8-101.4,52.8c-17,5.6-40.7,17.8-53.4,5.3c-37.4-37,1.1-105.4,12.4-156.6c2.3-10.1,1.5-22.6,8.9-29.9
		c3-3,3.3-12.4,7.1-10.6c8.6,4.3-2.8,18.9-5.3,28.1c-15.9,57.5-36.2,113.9-48,172.4c-2.8,13.9-7.5,35.9,5.3,42.2
		c9.8,4.8,21.2-6.3,30.2-12.3c28.6-18.9,62.1-33.3,83.6-59.8c7.4-9.2,10.1-24.4,21.3-28.1c4.1-1.4-1.2,8.8-3.6,12.3
		c-7.2,10.7-17.5,19.5-28.5,26.4c-28.6,17.9-94.8,38.1-101.4,5.3c-9.1-44.8,6.7-92.1,21.3-135.5c17.3-51.4-53,123.5-14.2,161.8
		c41.1,40.6,126.7-26.4,156.5-75.6c0.4-0.6-7.7,1.3-14.2,5.3c-14.1,8.6-13.4,9.6-26.7,19.4c-29.9,21.8-64.8,51.8-101.4,45.7
		C22.4,446,57,350.6,57,298"/>
</g>
</svg>
