<?xml version="1.0" encoding="UTF-8"?>
<svg id="Layer_1" data-name="Layer 1" xmlns="http://www.w3.org/2000/svg" viewBox="0 0 175.31 94.1">
  <defs>
    <style>
      .cls-1 {
        fill: #231f20;
        stroke-width: 0px;
      }
    </style>
  </defs>
  <path class="cls-1" d="m12.5,93.79c3.1-4.04,8.08-11.52,4.04-16.55-2.62-3.27-7.67-3.17-11.15-1.49-5.01,2.42-6.99,8.7-3.97,13.51s9.46,5.21,14.64,4.63c5.87-.66,11.51-2.72,16.61-5.66,5.75-3.31,10.8-7.73,15.32-12.57,4.23-4.53,8.83-9.65,9.36-16.11l-.62.62c12.71-.13,25.44-.31,38.14-.99.8-.04.81-1.29,0-1.25-12.7.68-25.43.86-38.14.99-.36,0-.6.28-.62.62-.45,5.45-4.16,9.88-7.67,13.78s-7.59,7.83-12.02,11-9.33,5.7-14.58,7.17c-4.94,1.38-11.4,2.46-16.18,0-5.48-2.8-5.82-10.67-.81-13.99,2.8-1.86,7.21-2.5,9.99-.24,5.04,4.11-.66,12.31-3.41,15.89-.49.64.6,1.26,1.08.63h0Z"/>
  <path class="cls-1" d="m174.07.42c-7.41,19.55-17.6,37.85-26.83,56.56-2.24,4.55-4.43,9.12-6.51,13.75s-4.24,9.07-5.63,13.81c-.69,2.33-1.45,5.5-.15,7.77.84,1.48,2.47,1.97,4.09,1.7,2.34-.4,4.26-2.02,5.69-3.82,3.16-4,5.36-8.73,7.15-13.48.28-.75-.92-1.08-1.21-.33-1.57,4.17-3.49,8.29-6.08,11.92-1.32,1.85-2.88,3.65-5.13,4.33-1.43.43-2.98.23-3.6-1.3-1.08-2.66.29-6.26,1.22-8.75,3.41-9.11,7.75-17.92,12.07-26.63,4.3-8.65,8.77-17.22,13.05-25.87,4.75-9.6,9.28-19.31,13.08-29.33.29-.75-.92-1.08-1.21-.33h0Z"/>
</svg>